Patient4_TMGait_0pt2_03_right_26_GRF.mot
version=1
nRows=26
nColumns=19
inDegrees=no
endheader
time	F1x	F1y	F1z	M1x	M1y	M1z	F2x	F2y	F2z	M2x	M2y	M2z	EC1x	EC1y	EC1z	EC2x	EC2y	EC2z
55.25	-10.8707	756.5064	55.0337	-247.0369	-67.7018	883.3067	3.5563	37.9806	-4.4717	13.5254	3.3312	41.498	-0.0592	0.0182	-0.0073	-0.0462	0.0165	0.9585
55.2724	-12.1654	780.7861	57.5569	-254.7671	-70.4772	910.8886	2.3966	31.2893	-3.8222	11.0996	3.1627	34.1902	-0.0592	0.0182	-0.0073	-0.0462	0.0165	0.9585
55.2949	-13.5114	808.284	60.2449	-263.4517	-73.3781	941.7177	1.2098	24.1649	-3.0867	8.5394	2.8825	26.4322	-0.0592	0.0182	-0.0073	-0.0462	0.0165	0.9585
55.3173	-14.6084	835.9586	62.825	-272.1055	-76.0196	972.216	0.23586	17.3073	-2.3244	6.0947	2.4647	18.9832	-0.0592	0.0182	-0.0073	-0.0462	0.0165	0.9585
55.3397	-15.1479	859.9981	65.0377	-279.4951	-78.0299	997.9877	-0.36366	11.3048	-1.6094	3.9696	1.9355	12.471	-0.0592	0.0182	-0.0073	-0.0462	0.0165	0.9585
55.3621	-14.9201	876.5011	66.6701	-284.3539	-79.1237	1014.6205	-0.62792	6.5415	-1.0124	2.293	1.3923	7.3025	-0.0592	0.0182	-0.0073	-0.0462	0.0165	0.9585
55.3846	-13.8598	882.4108	67.5489	-285.6951	-79.1041	1018.7503	-0.67337	3.0928	-0.56622	1.0866	0.92006	3.5556	-0.0592	0.0182	-0.0073	-0.0462	0.0165	0.9585
55.407	-12.017	876.4136	67.5458	-283.1138	-77.8639	1009.0312	-0.59555	0.79201	-0.26783	0.28796	0.55687	1.0396	-0.0592	0.0182	-0.0073	-0.0462	0.0165	0.9585
55.4294	-9.5184	859.3283	66.6123	-276.9097	-75.4093	986.5345	-0.46354	-0.64532	-0.09299	-0.20555	0.30576	-0.56359	-0.0592	0.0182	-0.0073	-0.0462	0.0165	0.9585
55.4519	-6.5275	833.9378	64.8049	-268.0256	-71.873	954.5352	-0.31878	-1.54	-0.0055653	-0.50828	0.14354	-1.6084	-0.0592	0.0182	-0.0073	-0.0462	0.0165	0.9585
55.4743	-3.207	804.3665	62.2872	-257.8342	-67.5048	917.7736	-0.17815	-2.1903	0.03179	-0.72705	0.03446	-2.4245	-0.0592	0.0182	-0.0073	-0.0462	0.0165	0.9585
55.4967	0.31605	775.1599	59.3176	-247.8332	-62.6432	881.4002	-0.039907	-2.8379	0.053108	-0.94845	-0.060425	-3.2784	-0.0592	0.0182	-0.0073	-0.0462	0.0165	0.9585
55.5191	3.9573	750.3205	56.2152	-239.331	-57.669	849.8949	0.10663	-3.6415	0.086653	-1.2299	-0.17609	-4.3412	-0.0592	0.0182	-0.0073	-0.0462	0.0165	0.9585
55.5416	7.6564	732.5517	53.2941	-233.2057	-52.9361	826.2414	0.28054	-4.6543	0.15107	-1.5915	-0.33793	-5.6578	-0.0592	0.0182	-0.0073	-0.0462	0.0165	0.9585
55.564	11.3638	722.8389	50.8079	-229.7752	-48.7157	811.4986	0.50433	-5.7906	0.2552	-2.0047	-0.56012	-7.103	-0.0592	0.0182	-0.0073	-0.0462	0.0165	0.9585
55.5864	15.0468	720.5319	48.9265	-228.8232	-45.1787	804.9169	0.7921	-6.7847	0.39218	-2.3754	-0.83487	-8.3359	-0.0592	0.0182	-0.0073	-0.0462	0.0165	0.9585
55.6089	18.698	723.7885	47.7373	-229.7374	-42.4051	804.4424	1.1401	-7.1533	0.5368	-2.5298	-1.1278	-8.7468	-0.0592	0.0182	-0.0073	-0.0462	0.0165	0.9585
55.6313	22.3102	730.0959	47.2676	-231.678	-40.4172	807.3234	1.5196	-6.1617	0.64305	-2.2032	-1.3711	-7.4084	-0.0592	0.0182	-0.0073	-0.0462	0.0165	0.9585
55.6537	25.8361	736.8206	47.5077	-233.7575	-39.2176	810.7408	1.8631	-2.8158	0.64097	-1.0367	-1.4481	-3.0701	-0.0592	0.0182	-0.0073	-0.0462	0.0165	0.9585
55.6761	29.1469	741.631	48.3941	-235.1852	-38.783	812.2764	2.0507	4.0977	0.43446	1.4087	-1.1836	5.786	-0.0592	0.0182	-0.0073	-0.0462	0.0165	0.9585
55.6986	32.0155	742.6687	49.7851	-235.3277	-39.0414	810.0851	1.8997	15.8761	-0.098655	5.6049	-0.34486	20.7739	-0.0592	0.0182	-0.0073	-0.0462	0.0165	0.9585
55.721	34.1344	738.5119	51.4656	-233.7033	-39.8726	802.8187	1.1572	33.6381	-1.0988	11.9629	1.3418	43.2667	-0.0592	0.0182	-0.0073	-0.0462	0.0165	0.9585
55.7434	35.1855	728.0992	53.1606	-229.9636	-41.0996	789.4939	-0.48605	57.891	-2.7048	20.677	4.1584	73.8392	-0.0592	0.0182	-0.0073	-0.0462	0.0165	0.9585
55.7659	34.9631	710.8145	54.5464	-223.923	-42.4636	769.5285	-3.1969	88.0818	-5.0414	31.5577	8.3174	111.7182	-0.0592	0.0182	-0.0073	-0.0462	0.0165	0.9585
55.7883	33.466	686.706	55.3088	-215.632	-43.6506	742.9486	-6.765	122.3096	-8.1501	43.9231	13.7715	154.4401	-0.0592	0.0182	-0.0073	-0.0462	0.0165	0.9585
55.8107	30.9327	656.7426	55.2303	-205.4511	-44.3685	710.6696	-10.6417	157.449	-11.8282	56.65	20.0289	198.0321	-0.0592	0.0182	-0.0073	-0.0462	0.0165	0.9585
